<svg width="1200" height="900" viewBox="0 0 1200 900" fill="none" xmlns="http://www.w3.org/2000/svg">
  <rect width="1200" height="900" rx="48" fill="#F5F1E8"/>
  <rect x="40" y="40" width="1120" height="820" rx="40" fill="url(#bg)"/>
  <circle cx="950" cy="180" r="120" fill="#C9A227" fill-opacity="0.15"/>
  <circle cx="220" cy="700" r="160" fill="#00A86B" fill-opacity="0.12"/>
  <rect x="120" y="140" width="420" height="580" rx="28" fill="#FFFFFF" fill-opacity="0.92"/>
  <rect x="170" y="210" width="320" height="36" rx="18" fill="#E5C458" fill-opacity="0.4"/>
  <rect x="170" y="270" width="230" height="18" rx="9" fill="#2D1B4E" fill-opacity="0.15"/>
  <rect x="170" y="308" width="280" height="18" rx="9" fill="#2D1B4E" fill-opacity="0.15"/>
  <rect x="170" y="390" width="300" height="240" rx="20" fill="#F7F6F2" stroke="#E5C458" stroke-opacity="0.35"/>
  <path d="M220 510H420" stroke="#2D1B4E" stroke-opacity="0.18" stroke-width="8" stroke-linecap="round"/>
  <path d="M320 410V610" stroke="#2D1B4E" stroke-opacity="0.18" stroke-width="8" stroke-linecap="round"/>
  <circle cx="320" cy="510" r="74" stroke="#00A86B" stroke-width="10" stroke-opacity="0.5"/>
  <circle cx="320" cy="510" r="34" fill="#C9A227" fill-opacity="0.45"/>
  <rect x="620" y="180" width="420" height="520" rx="32" fill="#2D1B4E" fill-opacity="0.94"/>
  <rect x="680" y="240" width="180" height="18" rx="9" fill="#E5C458" fill-opacity="0.95"/>
  <rect x="680" y="286" width="240" height="16" rx="8" fill="#FFFFFF" fill-opacity="0.25"/>
  <rect x="680" y="322" width="210" height="16" rx="8" fill="#FFFFFF" fill-opacity="0.25"/>
  <circle cx="830" cy="450" r="120" stroke="#E5C458" stroke-opacity="0.65" stroke-width="10"/>
  <circle cx="830" cy="450" r="78" stroke="#FFFFFF" stroke-opacity="0.28" stroke-width="8"/>
  <circle cx="830" cy="450" r="28" fill="#00A86B" fill-opacity="0.75"/>
  <path d="M830 330V570" stroke="#FFFFFF" stroke-opacity="0.2" stroke-width="6" stroke-linecap="round"/>
  <path d="M710 450H950" stroke="#FFFFFF" stroke-opacity="0.2" stroke-width="6" stroke-linecap="round"/>
  <rect x="690" y="620" width="280" height="18" rx="9" fill="#FFFFFF" fill-opacity="0.22"/>
  <rect x="740" y="656" width="180" height="18" rx="9" fill="#FFFFFF" fill-opacity="0.14"/>
  <defs>
    <linearGradient id="bg" x1="80" y1="70" x2="1090" y2="800" gradientUnits="userSpaceOnUse">
      <stop stop-color="#FBFAF7"/>
      <stop offset="0.5" stop-color="#F2E8C9"/>
      <stop offset="1" stop-color="#E6F4EE"/>
    </linearGradient>
  </defs>
</svg>